<svg width="184" height="184" viewBox="0 0 184 184" fill="none" xmlns="http://www.w3.org/2000/svg">
<path d="M0 33C0 14.7746 14.7746 3.05176e-05 33 3.05176e-05H139.046C161.329 3.05176e-05 177.207 21.6293 170.53 42.8884L145.606 122.243C142.403 132.441 134.459 140.457 124.289 143.75L43.167 170.021C21.8513 176.924 0 161.032 0 138.626V33Z" fill="#2B3544"/>
<path d="M184 151C184 169.225 169.225 184 151 184L44.954 184C22.671 184 6.79331 162.371 13.4704 141.112L38.3941 61.7567C41.5972 51.5585 49.5414 43.5435 59.7108 40.2503L140.833 13.9794C162.149 7.0764 184 22.9685 184 45.3741L184 151Z" fill="#2B3544"/>
<path fill-rule="evenodd" clip-rule="evenodd" d="M160.967 24.0256C165.133 31.5467 166.422 40.7384 163.556 49.8619L141.93 118.719C138.727 128.917 130.782 136.932 120.613 140.225L50.1404 163.047C40.5294 166.16 30.8096 164.638 23.033 159.974C18.8668 152.453 17.5783 143.262 20.4438 134.138L42.0703 65.2813C45.2733 55.0832 53.2176 47.0682 63.387 43.7749L133.859 20.9528C143.47 17.8404 153.19 19.3621 160.967 24.0256Z" fill="#32FF90"/>
</svg>
